# xmcd
#
# Track frame offsets: 
#        150
#        2472
#        22680
#        42432
#        58347
#        78737
#        99995
#        122255
#        141892
#        157510
#        173362
#        194970
#        214507
#        219014
#        238821
#        263796
#        278171
#        297721
#        315283
#        335672
#
# Disc length: 4751 seconds
#
# Revision: 0
# Processed by: cddbd v1.5.2PL0 Copyright (c) Steve Scherf et al.
# Submitted via: ExactAudioCopy v1.0b3
#
DISCID=11128d14
DTITLE=光良 - 第一次个人创作专辑
DYEAR=2001
DGENRE=Pop
TTITLE0=Intro
TTITLE1=单恋
TTITLE2=第一次
TTITLE3=Stop Now
TTITLE4=我爱你在那里
TTITLE5=如果你还爱我
TTITLE6=朋友首日封
TTITLE7=回到一个人
TTITLE8=电梯
TTITLE9=我想去个地方
TTITLE10=你好吗
TTITLE11=雨
TTITLE12=Ending
TTITLE13=疼你的责任
TTITLE14=陪你一起老
TTITLE15=朋友
TTITLE16=别人都说我们会分开
TTITLE17=想见你
TTITLE18=身边
TTITLE19=我找你找了好久
EXTD=
EXTT0=
EXTT1=
EXTT2=
EXTT3=
EXTT4=
EXTT5=
EXTT6=
EXTT7=
EXTT8=
EXTT9=
EXTT10=
EXTT11=
EXTT12=
EXTT13=
EXTT14=
EXTT15=
EXTT16=
EXTT17=
EXTT18=
EXTT19=
PLAYORDER=
